<svg width="181" height="40" viewBox="0 0 181 40" fill="none" xmlns="http://www.w3.org/2000/svg">
<path fill-rule="evenodd" clip-rule="evenodd" d="M0 0.5V24.5H24V0.5H0ZM3.41421 2.5L12 11.0858L20.5858 2.5H3.41421ZM22 3.91421L13.4142 12.5L22 21.0858V3.91421ZM20.5858 22.5L12 13.9142L3.41421 22.5H20.5858ZM2 21.0858L10.5858 12.5L2 3.91421V21.0858Z" fill="#4D5358"/>
<path d="M33.6367 18.793L37.0352 4.4375H38.9336L39.3672 6.82812L35.7461 21.5H33.707L33.6367 18.793ZM31.8906 4.4375L34.7031 18.793L34.4688 21.5H32.1953L28.4102 4.4375H31.8906ZM42.3555 18.7344L45.1328 4.4375H48.6133L44.8398 21.5H42.5664L42.3555 18.7344ZM40 4.4375L43.4219 18.8516L43.3281 21.5H41.2891L37.6445 6.81641L38.1133 4.4375H40ZM55.7734 21.7344C54.7891 21.7344 53.9062 21.5781 53.125 21.2656C52.3438 20.9453 51.6797 20.5039 51.1328 19.9414C50.5938 19.3789 50.1797 18.7266 49.8906 17.9844C49.6016 17.2344 49.457 16.4375 49.457 15.5938V15.125C49.457 14.1641 49.5938 13.2852 49.8672 12.4883C50.1406 11.6914 50.5312 11 51.0391 10.4141C51.5547 9.82812 52.1797 9.37891 52.9141 9.06641C53.6484 8.74609 54.4766 8.58594 55.3984 8.58594C56.2969 8.58594 57.0938 8.73438 57.7891 9.03125C58.4844 9.32812 59.0664 9.75 59.5352 10.2969C60.0117 10.8438 60.3711 11.5 60.6133 12.2656C60.8555 13.0234 60.9766 13.8672 60.9766 14.7969V16.2031H50.8984V13.9531H57.6602V13.6953C57.6602 13.2266 57.5742 12.8086 57.4023 12.4414C57.2383 12.0664 56.9883 11.7695 56.6523 11.5508C56.3164 11.332 55.8867 11.2227 55.3633 11.2227C54.918 11.2227 54.5352 11.3203 54.2148 11.5156C53.8945 11.7109 53.6328 11.9844 53.4297 12.3359C53.2344 12.6875 53.0859 13.1016 52.9844 13.5781C52.8906 14.0469 52.8438 14.5625 52.8438 15.125V15.5938C52.8438 16.1016 52.9141 16.5703 53.0547 17C53.2031 17.4297 53.4102 17.8008 53.6758 18.1133C53.9492 18.4258 54.2773 18.668 54.6602 18.8398C55.0508 19.0117 55.4922 19.0977 55.9844 19.0977C56.5938 19.0977 57.1602 18.9805 57.6836 18.7461C58.2148 18.5039 58.6719 18.1406 59.0547 17.6562L60.6953 19.4375C60.4297 19.8203 60.0664 20.1875 59.6055 20.5391C59.1523 20.8906 58.6055 21.1797 57.9648 21.4062C57.3242 21.625 56.5938 21.7344 55.7734 21.7344ZM62.8984 3.5H66.2734V18.5938L65.9336 21.5H62.8984V3.5ZM74.3008 15.0312V15.2773C74.3008 16.2227 74.1992 17.0898 73.9961 17.8789C73.8008 18.668 73.4961 19.3516 73.082 19.9297C72.668 20.5 72.1523 20.9453 71.5352 21.2656C70.9258 21.5781 70.207 21.7344 69.3789 21.7344C68.6055 21.7344 67.9336 21.5781 67.3633 21.2656C66.8008 20.9531 66.3281 20.5117 65.9453 19.9414C65.5625 19.3711 65.2539 18.7031 65.0195 17.9375C64.7852 17.1719 64.6094 16.3359 64.4922 15.4297V14.8906C64.6094 13.9844 64.7852 13.1484 65.0195 12.3828C65.2539 11.6172 65.5625 10.9492 65.9453 10.3789C66.3281 9.80859 66.8008 9.36719 67.3633 9.05469C67.9258 8.74219 68.5898 8.58594 69.3555 8.58594C70.1914 8.58594 70.918 8.74609 71.5352 9.06641C72.1602 9.37891 72.6758 9.82422 73.082 10.4023C73.4961 10.9727 73.8008 11.6523 73.9961 12.4414C74.1992 13.2227 74.3008 14.0859 74.3008 15.0312ZM70.9258 15.2773V15.0312C70.9258 14.5156 70.8867 14.0312 70.8086 13.5781C70.7383 13.1172 70.6133 12.7148 70.4336 12.3711C70.2539 12.0195 70.0078 11.7422 69.6953 11.5391C69.3906 11.3359 68.9961 11.2344 68.5117 11.2344C68.0508 11.2344 67.6602 11.3125 67.3398 11.4688C67.0195 11.625 66.7539 11.8438 66.543 12.125C66.3398 12.4062 66.1875 12.7422 66.0859 13.1328C65.9844 13.5156 65.9219 13.9375 65.8984 14.3984V15.9336C65.9219 16.5508 66.0234 17.0977 66.2031 17.5742C66.3906 18.043 66.6719 18.4141 67.0469 18.6875C67.4297 18.9531 67.9258 19.0859 68.5352 19.0859C69.0117 19.0859 69.4062 18.9922 69.7188 18.8047C70.0312 18.6172 70.2734 18.3516 70.4453 18.0078C70.625 17.6641 70.75 17.2617 70.8203 16.8008C70.8906 16.332 70.9258 15.8242 70.9258 15.2773ZM76.3984 3.5H79.7734V18.5938L79.4336 21.5H76.3984V3.5ZM87.8008 15.0312V15.2773C87.8008 16.2227 87.6992 17.0898 87.4961 17.8789C87.3008 18.668 86.9961 19.3516 86.582 19.9297C86.168 20.5 85.6523 20.9453 85.0352 21.2656C84.4258 21.5781 83.707 21.7344 82.8789 21.7344C82.1055 21.7344 81.4336 21.5781 80.8633 21.2656C80.3008 20.9531 79.8281 20.5117 79.4453 19.9414C79.0625 19.3711 78.7539 18.7031 78.5195 17.9375C78.2852 17.1719 78.1094 16.3359 77.9922 15.4297V14.8906C78.1094 13.9844 78.2852 13.1484 78.5195 12.3828C78.7539 11.6172 79.0625 10.9492 79.4453 10.3789C79.8281 9.80859 80.3008 9.36719 80.8633 9.05469C81.4258 8.74219 82.0898 8.58594 82.8555 8.58594C83.6914 8.58594 84.418 8.74609 85.0352 9.06641C85.6602 9.37891 86.1758 9.82422 86.582 10.4023C86.9961 10.9727 87.3008 11.6523 87.4961 12.4414C87.6992 13.2227 87.8008 14.0859 87.8008 15.0312ZM84.4258 15.2773V15.0312C84.4258 14.5156 84.3867 14.0312 84.3086 13.5781C84.2383 13.1172 84.1133 12.7148 83.9336 12.3711C83.7539 12.0195 83.5078 11.7422 83.1953 11.5391C82.8906 11.3359 82.4961 11.2344 82.0117 11.2344C81.5508 11.2344 81.1602 11.3125 80.8398 11.4688C80.5195 11.625 80.2539 11.8438 80.043 12.125C79.8398 12.4062 79.6875 12.7422 79.5859 13.1328C79.4844 13.5156 79.4219 13.9375 79.3984 14.3984V15.9336C79.4219 16.5508 79.5234 17.0977 79.7031 17.5742C79.8906 18.043 80.1719 18.4141 80.5469 18.6875C80.9297 18.9531 81.4258 19.0859 82.0352 19.0859C82.5117 19.0859 82.9062 18.9922 83.2188 18.8047C83.5312 18.6172 83.7734 18.3516 83.9453 18.0078C84.125 17.6641 84.25 17.2617 84.3203 16.8008C84.3906 16.332 84.4258 15.8242 84.4258 15.2773ZM93.5195 20.0703L96.8828 8.82031H100.504L95.4062 23.4102C95.2969 23.7305 95.1484 24.0742 94.9609 24.4414C94.7812 24.8086 94.5352 25.1562 94.2227 25.4844C93.918 25.8203 93.5312 26.0938 93.0625 26.3047C92.6016 26.5156 92.0352 26.6211 91.3633 26.6211C91.043 26.6211 90.7812 26.6016 90.5781 26.5625C90.375 26.5234 90.1328 26.4688 89.8516 26.3984V23.9258C89.9375 23.9258 90.0273 23.9258 90.1211 23.9258C90.2148 23.9336 90.3047 23.9375 90.3906 23.9375C90.8359 23.9375 91.1992 23.8867 91.4805 23.7852C91.7617 23.6836 91.9883 23.5273 92.1602 23.3164C92.332 23.1133 92.4688 22.8477 92.5703 22.5195L93.5195 20.0703ZM92.1133 8.82031L94.8672 18.0078L95.3477 21.582L93.0508 21.8281L88.4922 8.82031H92.1133ZM105.578 4.4375V21.5H102.062V4.4375H105.578ZM112.375 11.7266V14.4688H104.617V11.7266H112.375ZM113.195 4.4375V7.19141H104.617V4.4375H113.195ZM118.094 11.5859V21.5H114.719V8.82031H117.895L118.094 11.5859ZM121.914 8.73828L121.855 11.8672C121.691 11.8438 121.492 11.8242 121.258 11.8086C121.031 11.7852 120.824 11.7734 120.637 11.7734C120.16 11.7734 119.746 11.8359 119.395 11.9609C119.051 12.0781 118.762 12.2539 118.527 12.4883C118.301 12.7227 118.129 13.0078 118.012 13.3438C117.902 13.6797 117.84 14.0625 117.824 14.4922L117.145 14.2812C117.145 13.4609 117.227 12.707 117.391 12.0195C117.555 11.3242 117.793 10.7188 118.105 10.2031C118.426 9.6875 118.816 9.28906 119.277 9.00781C119.738 8.72656 120.266 8.58594 120.859 8.58594C121.047 8.58594 121.238 8.60156 121.434 8.63281C121.629 8.65625 121.789 8.69141 121.914 8.73828ZM129.953 18.6406V12.9922C129.953 12.5859 129.887 12.2383 129.754 11.9492C129.621 11.6523 129.414 11.4219 129.133 11.2578C128.859 11.0938 128.504 11.0117 128.066 11.0117C127.691 11.0117 127.367 11.0781 127.094 11.2109C126.82 11.3359 126.609 11.5195 126.461 11.7617C126.312 11.9961 126.238 12.2734 126.238 12.5938H122.863C122.863 12.0547 122.988 11.543 123.238 11.0586C123.488 10.5742 123.852 10.1484 124.328 9.78125C124.805 9.40625 125.371 9.11328 126.027 8.90234C126.691 8.69141 127.434 8.58594 128.254 8.58594C129.238 8.58594 130.113 8.75 130.879 9.07812C131.645 9.40625 132.246 9.89844 132.684 10.5547C133.129 11.2109 133.352 12.0312 133.352 13.0156V18.4414C133.352 19.1367 133.395 19.707 133.48 20.1523C133.566 20.5898 133.691 20.9727 133.855 21.3008V21.5H130.445C130.281 21.1562 130.156 20.7266 130.07 20.2109C129.992 19.6875 129.953 19.1641 129.953 18.6406ZM130.398 13.7773L130.422 15.6875H128.535C128.09 15.6875 127.703 15.7383 127.375 15.8398C127.047 15.9414 126.777 16.0859 126.566 16.2734C126.355 16.4531 126.199 16.6641 126.098 16.9062C126.004 17.1484 125.957 17.4141 125.957 17.7031C125.957 17.9922 126.023 18.2539 126.156 18.4883C126.289 18.7148 126.48 18.8945 126.73 19.0273C126.98 19.1523 127.273 19.2148 127.609 19.2148C128.117 19.2148 128.559 19.1133 128.934 18.9102C129.309 18.707 129.598 18.457 129.801 18.1602C130.012 17.8633 130.121 17.582 130.129 17.3164L131.02 18.7461C130.895 19.0664 130.723 19.3984 130.504 19.7422C130.293 20.0859 130.023 20.4102 129.695 20.7148C129.367 21.0117 128.973 21.2578 128.512 21.4531C128.051 21.6406 127.504 21.7344 126.871 21.7344C126.066 21.7344 125.336 21.5742 124.68 21.2539C124.031 20.9258 123.516 20.4766 123.133 19.9062C122.758 19.3281 122.57 18.6719 122.57 17.9375C122.57 17.2734 122.695 16.6836 122.945 16.168C123.195 15.6523 123.562 15.2188 124.047 14.8672C124.539 14.5078 125.152 14.2383 125.887 14.0586C126.621 13.8711 127.473 13.7773 128.441 13.7773H130.398ZM139.328 11.4453V21.5H135.941V8.82031H139.117L139.328 11.4453ZM138.859 14.7148H137.922C137.922 13.832 138.027 13.0195 138.238 12.2773C138.457 11.5273 138.773 10.8789 139.188 10.332C139.609 9.77734 140.129 9.34766 140.746 9.04297C141.363 8.73828 142.078 8.58594 142.891 8.58594C143.453 8.58594 143.969 8.67188 144.438 8.84375C144.906 9.00781 145.309 9.26953 145.645 9.62891C145.988 9.98047 146.254 10.4414 146.441 11.0117C146.629 11.5742 146.723 12.25 146.723 13.0391V21.5H143.348V13.4141C143.348 12.8359 143.27 12.3906 143.113 12.0781C142.957 11.7656 142.734 11.5469 142.445 11.4219C142.164 11.2969 141.824 11.2344 141.426 11.2344C140.988 11.2344 140.605 11.3242 140.277 11.5039C139.957 11.6836 139.691 11.9336 139.48 12.2539C139.27 12.5664 139.113 12.9336 139.012 13.3555C138.91 13.7773 138.859 14.2305 138.859 14.7148ZM146.406 14.3281L145.199 14.4805C145.199 13.6523 145.301 12.8828 145.504 12.1719C145.715 11.4609 146.023 10.8359 146.43 10.2969C146.844 9.75781 147.355 9.33984 147.965 9.04297C148.574 8.73828 149.277 8.58594 150.074 8.58594C150.684 8.58594 151.238 8.67578 151.738 8.85547C152.238 9.02734 152.664 9.30469 153.016 9.6875C153.375 10.0625 153.648 10.5547 153.836 11.1641C154.031 11.7734 154.129 12.5195 154.129 13.4023V21.5H150.742V13.4023C150.742 12.8164 150.664 12.3711 150.508 12.0664C150.359 11.7539 150.141 11.5391 149.852 11.4219C149.57 11.2969 149.234 11.2344 148.844 11.2344C148.438 11.2344 148.082 11.3164 147.777 11.4805C147.473 11.6367 147.219 11.8555 147.016 12.1367C146.812 12.418 146.66 12.7461 146.559 13.1211C146.457 13.4883 146.406 13.8906 146.406 14.3281ZM162.578 21.7344C161.594 21.7344 160.711 21.5781 159.93 21.2656C159.148 20.9453 158.484 20.5039 157.938 19.9414C157.398 19.3789 156.984 18.7266 156.695 17.9844C156.406 17.2344 156.262 16.4375 156.262 15.5938V15.125C156.262 14.1641 156.398 13.2852 156.672 12.4883C156.945 11.6914 157.336 11 157.844 10.4141C158.359 9.82812 158.984 9.37891 159.719 9.06641C160.453 8.74609 161.281 8.58594 162.203 8.58594C163.102 8.58594 163.898 8.73438 164.594 9.03125C165.289 9.32812 165.871 9.75 166.34 10.2969C166.816 10.8438 167.176 11.5 167.418 12.2656C167.66 13.0234 167.781 13.8672 167.781 14.7969V16.2031H157.703V13.9531H164.465V13.6953C164.465 13.2266 164.379 12.8086 164.207 12.4414C164.043 12.0664 163.793 11.7695 163.457 11.5508C163.121 11.332 162.691 11.2227 162.168 11.2227C161.723 11.2227 161.34 11.3203 161.02 11.5156C160.699 11.7109 160.438 11.9844 160.234 12.3359C160.039 12.6875 159.891 13.1016 159.789 13.5781C159.695 14.0469 159.648 14.5625 159.648 15.125V15.5938C159.648 16.1016 159.719 16.5703 159.859 17C160.008 17.4297 160.215 17.8008 160.48 18.1133C160.754 18.4258 161.082 18.668 161.465 18.8398C161.855 19.0117 162.297 19.0977 162.789 19.0977C163.398 19.0977 163.965 18.9805 164.488 18.7461C165.02 18.5039 165.477 18.1406 165.859 17.6562L167.5 19.4375C167.234 19.8203 166.871 20.1875 166.41 20.5391C165.957 20.8906 165.41 21.1797 164.77 21.4062C164.129 21.625 163.398 21.7344 162.578 21.7344ZM176.559 17.9961C176.559 17.7539 176.488 17.5352 176.348 17.3398C176.207 17.1445 175.945 16.9648 175.562 16.8008C175.188 16.6289 174.645 16.4727 173.934 16.332C173.293 16.1914 172.695 16.0156 172.141 15.8047C171.594 15.5859 171.117 15.3242 170.711 15.0195C170.312 14.7148 170 14.3555 169.773 13.9414C169.547 13.5195 169.434 13.0391 169.434 12.5C169.434 11.9688 169.547 11.4688 169.773 11C170.008 10.5312 170.34 10.1172 170.77 9.75781C171.207 9.39062 171.738 9.10547 172.363 8.90234C172.996 8.69141 173.707 8.58594 174.496 8.58594C175.598 8.58594 176.543 8.76172 177.332 9.11328C178.129 9.46484 178.738 9.94922 179.16 10.5664C179.59 11.1758 179.805 11.8711 179.805 12.6523H176.43C176.43 12.3242 176.359 12.0312 176.219 11.7734C176.086 11.5078 175.875 11.3008 175.586 11.1523C175.305 10.9961 174.938 10.918 174.484 10.918C174.109 10.918 173.785 10.9844 173.512 11.1172C173.238 11.2422 173.027 11.4141 172.879 11.6328C172.738 11.8438 172.668 12.0781 172.668 12.3359C172.668 12.5312 172.707 12.707 172.785 12.8633C172.871 13.0117 173.008 13.1484 173.195 13.2734C173.383 13.3984 173.625 13.5156 173.922 13.625C174.227 13.7266 174.602 13.8203 175.047 13.9062C175.961 14.0938 176.777 14.3398 177.496 14.6445C178.215 14.9414 178.785 15.3477 179.207 15.8633C179.629 16.3711 179.84 17.0391 179.84 17.8672C179.84 18.4297 179.715 18.9453 179.465 19.4141C179.215 19.8828 178.855 20.293 178.387 20.6445C177.918 20.9883 177.355 21.2578 176.699 21.4531C176.051 21.6406 175.32 21.7344 174.508 21.7344C173.328 21.7344 172.328 21.5234 171.508 21.1016C170.695 20.6797 170.078 20.1445 169.656 19.4961C169.242 18.8398 169.035 18.168 169.035 17.4805H172.234C172.25 17.9414 172.367 18.3125 172.586 18.5938C172.812 18.875 173.098 19.0781 173.441 19.2031C173.793 19.3281 174.172 19.3906 174.578 19.3906C175.016 19.3906 175.379 19.332 175.668 19.2148C175.957 19.0898 176.176 18.9258 176.324 18.7227C176.48 18.5117 176.559 18.2695 176.559 17.9961Z" fill="#697077"/>
<path d="M131.443 35.5H130.359V28.4922C130.359 28.0352 130.441 27.6504 130.605 27.3379C130.773 27.0215 131.014 26.7832 131.326 26.623C131.639 26.459 132.01 26.377 132.439 26.377C132.564 26.377 132.689 26.3848 132.814 26.4004C132.943 26.416 133.068 26.4395 133.189 26.4707L133.131 27.3555C133.049 27.3359 132.955 27.3223 132.85 27.3145C132.748 27.3066 132.646 27.3027 132.545 27.3027C132.314 27.3027 132.115 27.3496 131.947 27.4434C131.783 27.5332 131.658 27.666 131.572 27.8418C131.486 28.0176 131.443 28.2344 131.443 28.4922V35.5ZM132.791 29.1602V29.9922H129.357V29.1602H132.791ZM133.711 32.4004V32.2656C133.711 31.8086 133.777 31.3848 133.91 30.9941C134.043 30.5996 134.234 30.2578 134.484 29.9688C134.734 29.6758 135.037 29.4492 135.393 29.2891C135.748 29.125 136.146 29.043 136.588 29.043C137.033 29.043 137.434 29.125 137.789 29.2891C138.148 29.4492 138.453 29.6758 138.703 29.9688C138.957 30.2578 139.15 30.5996 139.283 30.9941C139.416 31.3848 139.482 31.8086 139.482 32.2656V32.4004C139.482 32.8574 139.416 33.2812 139.283 33.6719C139.15 34.0625 138.957 34.4043 138.703 34.6973C138.453 34.9863 138.15 35.2129 137.795 35.377C137.443 35.5371 137.045 35.6172 136.6 35.6172C136.154 35.6172 135.754 35.5371 135.398 35.377C135.043 35.2129 134.738 34.9863 134.484 34.6973C134.234 34.4043 134.043 34.0625 133.91 33.6719C133.777 33.2812 133.711 32.8574 133.711 32.4004ZM134.795 32.2656V32.4004C134.795 32.7168 134.832 33.0156 134.906 33.2969C134.98 33.5742 135.092 33.8203 135.24 34.0352C135.393 34.25 135.582 34.4199 135.809 34.5449C136.035 34.666 136.299 34.7266 136.6 34.7266C136.896 34.7266 137.156 34.666 137.379 34.5449C137.605 34.4199 137.793 34.25 137.941 34.0352C138.09 33.8203 138.201 33.5742 138.275 33.2969C138.354 33.0156 138.393 32.7168 138.393 32.4004V32.2656C138.393 31.9531 138.354 31.6582 138.275 31.3809C138.201 31.0996 138.088 30.8516 137.936 30.6367C137.787 30.418 137.6 30.2461 137.373 30.1211C137.15 29.9961 136.889 29.9336 136.588 29.9336C136.291 29.9336 136.029 29.9961 135.803 30.1211C135.58 30.2461 135.393 30.418 135.24 30.6367C135.092 30.8516 134.98 31.0996 134.906 31.3809C134.832 31.6582 134.795 31.9531 134.795 32.2656ZM141.926 30.1562V35.5H140.842V29.1602H141.896L141.926 30.1562ZM143.906 29.125L143.9 30.1328C143.811 30.1133 143.725 30.1016 143.643 30.0977C143.564 30.0898 143.475 30.0859 143.373 30.0859C143.123 30.0859 142.902 30.125 142.711 30.2031C142.52 30.2812 142.357 30.3906 142.225 30.5312C142.092 30.6719 141.986 30.8398 141.908 31.0352C141.834 31.2266 141.785 31.4375 141.762 31.668L141.457 31.8438C141.457 31.4609 141.494 31.1016 141.568 30.7656C141.646 30.4297 141.766 30.1328 141.926 29.875C142.086 29.6133 142.289 29.4102 142.535 29.2656C142.785 29.1172 143.082 29.043 143.426 29.043C143.504 29.043 143.594 29.0527 143.695 29.0723C143.797 29.0879 143.867 29.1055 143.906 29.125ZM149.18 26.9688V35.5H148.049V26.9688H149.18ZM152.754 30.8066V31.7324H148.934V30.8066H152.754ZM153.334 26.9688V27.8945H148.934V26.9688H153.334ZM155.695 29.1602V35.5H154.605V29.1602H155.695ZM154.523 27.4785C154.523 27.3027 154.576 27.1543 154.682 27.0332C154.791 26.9121 154.951 26.8516 155.162 26.8516C155.369 26.8516 155.527 26.9121 155.637 27.0332C155.75 27.1543 155.807 27.3027 155.807 27.4785C155.807 27.6465 155.75 27.791 155.637 27.9121C155.527 28.0293 155.369 28.0879 155.162 28.0879C154.951 28.0879 154.791 28.0293 154.682 27.9121C154.576 27.791 154.523 27.6465 154.523 27.4785ZM161.543 29.1602H162.527V35.3652C162.527 35.9238 162.414 36.4004 162.188 36.7949C161.961 37.1895 161.645 37.4883 161.238 37.6914C160.836 37.8984 160.371 38.002 159.844 38.002C159.625 38.002 159.367 37.9668 159.07 37.8965C158.777 37.8301 158.488 37.7148 158.203 37.5508C157.922 37.3906 157.686 37.1738 157.494 36.9004L158.062 36.2559C158.328 36.5762 158.605 36.7988 158.895 36.9238C159.188 37.0488 159.477 37.1113 159.762 37.1113C160.105 37.1113 160.402 37.0469 160.652 36.918C160.902 36.7891 161.096 36.5977 161.232 36.3438C161.373 36.0938 161.443 35.7852 161.443 35.418V30.5547L161.543 29.1602ZM157.178 32.4004V32.2773C157.178 31.793 157.234 31.3535 157.348 30.959C157.465 30.5605 157.631 30.2188 157.846 29.9336C158.064 29.6484 158.328 29.4297 158.637 29.2773C158.945 29.1211 159.293 29.043 159.68 29.043C160.078 29.043 160.426 29.1133 160.723 29.2539C161.023 29.3906 161.277 29.5918 161.484 29.8574C161.695 30.1191 161.861 30.4355 161.982 30.8066C162.104 31.1777 162.188 31.5977 162.234 32.0664V32.6055C162.191 33.0703 162.107 33.4883 161.982 33.8594C161.861 34.2305 161.695 34.5469 161.484 34.8086C161.277 35.0703 161.023 35.2715 160.723 35.4121C160.422 35.5488 160.07 35.6172 159.668 35.6172C159.289 35.6172 158.945 35.5371 158.637 35.377C158.332 35.2168 158.07 34.9922 157.852 34.7031C157.633 34.4141 157.465 34.0742 157.348 33.6836C157.234 33.2891 157.178 32.8613 157.178 32.4004ZM158.262 32.2773V32.4004C158.262 32.7168 158.293 33.0137 158.355 33.291C158.422 33.5684 158.521 33.8125 158.654 34.0234C158.791 34.2344 158.965 34.4004 159.176 34.5215C159.387 34.6387 159.639 34.6973 159.932 34.6973C160.291 34.6973 160.588 34.6211 160.822 34.4688C161.057 34.3164 161.242 34.1152 161.379 33.8652C161.52 33.6152 161.629 33.3438 161.707 33.0508V31.6387C161.664 31.4238 161.598 31.2168 161.508 31.0176C161.422 30.8145 161.309 30.6348 161.168 30.4785C161.031 30.3184 160.861 30.1914 160.658 30.0977C160.455 30.0039 160.217 29.957 159.943 29.957C159.646 29.957 159.391 30.0195 159.176 30.1445C158.965 30.2656 158.791 30.4336 158.654 30.6484C158.521 30.8594 158.422 31.1055 158.355 31.3867C158.293 31.6641 158.262 31.9609 158.262 32.2773ZM165.252 30.4199V35.5H164.162V29.1602H165.193L165.252 30.4199ZM165.029 32.0898L164.525 32.0723C164.529 31.6387 164.586 31.2383 164.695 30.8711C164.805 30.5 164.967 30.1777 165.182 29.9043C165.396 29.6309 165.664 29.4199 165.984 29.2715C166.305 29.1191 166.676 29.043 167.098 29.043C167.395 29.043 167.668 29.0859 167.918 29.1719C168.168 29.2539 168.385 29.3848 168.568 29.5645C168.752 29.7441 168.895 29.9746 168.996 30.2559C169.098 30.5371 169.148 30.877 169.148 31.2754V35.5H168.064V31.3281C168.064 30.9961 168.008 30.7305 167.895 30.5312C167.785 30.332 167.629 30.1875 167.426 30.0977C167.223 30.0039 166.984 29.957 166.711 29.957C166.391 29.957 166.123 30.0137 165.908 30.127C165.693 30.2402 165.521 30.3965 165.393 30.5957C165.264 30.7949 165.17 31.0234 165.111 31.2812C165.057 31.5352 165.029 31.8047 165.029 32.0898ZM169.137 31.4922L168.41 31.7148C168.414 31.3672 168.471 31.0332 168.58 30.7129C168.693 30.3926 168.855 30.1074 169.066 29.8574C169.281 29.6074 169.545 29.4102 169.857 29.2656C170.17 29.1172 170.527 29.043 170.93 29.043C171.27 29.043 171.57 29.0879 171.832 29.1777C172.098 29.2676 172.32 29.4062 172.5 29.5938C172.684 29.7773 172.822 30.0137 172.916 30.3027C173.01 30.5918 173.057 30.9355 173.057 31.334V35.5H171.967V31.3223C171.967 30.9668 171.91 30.6914 171.797 30.4961C171.688 30.2969 171.531 30.1582 171.328 30.0801C171.129 29.998 170.891 29.957 170.613 29.957C170.375 29.957 170.164 29.998 169.98 30.0801C169.797 30.1621 169.643 30.2754 169.518 30.4199C169.393 30.5605 169.297 30.7227 169.23 30.9062C169.168 31.0898 169.137 31.2852 169.137 31.4922ZM178.436 34.416V31.1523C178.436 30.9023 178.385 30.6855 178.283 30.502C178.186 30.3145 178.037 30.1699 177.838 30.0684C177.639 29.9668 177.393 29.916 177.1 29.916C176.826 29.916 176.586 29.9629 176.379 30.0566C176.176 30.1504 176.016 30.2734 175.898 30.4258C175.785 30.5781 175.729 30.7422 175.729 30.918H174.645C174.645 30.6914 174.703 30.4668 174.82 30.2441C174.938 30.0215 175.105 29.8203 175.324 29.6406C175.547 29.457 175.812 29.3125 176.121 29.207C176.434 29.0977 176.781 29.043 177.164 29.043C177.625 29.043 178.031 29.1211 178.383 29.2773C178.738 29.4336 179.016 29.6699 179.215 29.9863C179.418 30.2988 179.52 30.6914 179.52 31.1641V34.1172C179.52 34.3281 179.537 34.5527 179.572 34.791C179.611 35.0293 179.668 35.2344 179.742 35.4062V35.5H178.611C178.557 35.375 178.514 35.209 178.482 35.002C178.451 34.791 178.436 34.5957 178.436 34.416ZM178.623 31.6562L178.635 32.418H177.539C177.23 32.418 176.955 32.4434 176.713 32.4941C176.471 32.541 176.268 32.6133 176.104 32.7109C175.939 32.8086 175.814 32.9316 175.729 33.0801C175.643 33.2246 175.6 33.3945 175.6 33.5898C175.6 33.7891 175.645 33.9707 175.734 34.1348C175.824 34.2988 175.959 34.4297 176.139 34.5273C176.322 34.6211 176.547 34.668 176.812 34.668C177.145 34.668 177.438 34.5977 177.691 34.457C177.945 34.3164 178.146 34.1445 178.295 33.9414C178.447 33.7383 178.529 33.541 178.541 33.3496L179.004 33.8711C178.977 34.0352 178.902 34.2168 178.781 34.416C178.66 34.6152 178.498 34.8066 178.295 34.9902C178.096 35.1699 177.857 35.3203 177.58 35.4414C177.307 35.5586 176.998 35.6172 176.654 35.6172C176.225 35.6172 175.848 35.5332 175.523 35.3652C175.203 35.1973 174.953 34.9727 174.773 34.6914C174.598 34.4062 174.51 34.0879 174.51 33.7363C174.51 33.3965 174.576 33.0977 174.709 32.8398C174.842 32.5781 175.033 32.3613 175.283 32.1895C175.533 32.0137 175.834 31.8809 176.186 31.791C176.537 31.7012 176.93 31.6562 177.363 31.6562H178.623Z" fill="#697077"/>
</svg>
