<svg width="24" height="24" viewBox="0 0 24 24" fill="none" xmlns="http://www.w3.org/2000/svg">
<path d="M22 5.90698C21.2504 6.23436 20.4565 6.44902 19.644 6.54398C20.4968 6.04321 21.138 5.24909 21.448 4.30998C20.64 4.78031 19.7587 5.11158 18.841 5.28998C18.4545 4.88519 17.9897 4.56337 17.4748 4.34416C16.9598 4.12495 16.4056 4.01295 15.846 4.01498C13.58 4.01498 11.743 5.82498 11.743 8.05498C11.743 8.37098 11.779 8.67998 11.849 8.97498C10.2236 8.89768 8.63212 8.48239 7.17617 7.75562C5.72022 7.02885 4.43176 6.00656 3.393 4.75398C3.02883 5.36838 2.83742 6.06976 2.839 6.78398C2.8397 7.45195 3.00683 8.10921 3.32529 8.69637C3.64375 9.28354 4.1035 9.78209 4.663 10.147C4.01248 10.126 3.37602 9.95231 2.805 9.63998V9.68998C2.805 11.648 4.22 13.281 6.095 13.653C5.74261 13.7465 5.37958 13.7939 5.015 13.794C4.75 13.794 4.493 13.769 4.242 13.719C4.51008 14.5269 5.02311 15.2313 5.70982 15.7343C6.39653 16.2373 7.22284 16.514 8.074 16.526C6.61407 17.6505 4.82182 18.258 2.979 18.253C2.647 18.253 2.321 18.233 2 18.197C3.88125 19.3877 6.06259 20.0183 8.289 20.015C15.836 20.015 19.962 13.858 19.962 8.51898L19.948 7.99598C20.7529 7.42965 21.4481 6.72183 22 5.90698Z" fill="white"/>
</svg>
